0
SECTION
2
HEADER
9
$INSUNITS
70
4
9
$ACADVER
1
AC1014
9
$HANDSEED
5
FFFF
0
ENDSEC
0
SECTION
2
TABLES
0
TABLE
2
VPORT
5
8
100
AcDbSymbolTable
0
ENDTAB
0
TABLE
2
LTYPE
5
5
100
AcDbSymbolTable
0
LTYPE
5
14
100
AcDbSymbolTableRecord
100
AcDbLinetypeTableRecord
2
BYBLOCK
70
0
0
LTYPE
5
15
100
AcDbSymbolTableRecord
100
AcDbLinetypeTableRecord
2
BYLAYER
70
0
0
ENDTAB
0
TABLE
2
LAYER
5
2
100
AcDbSymbolTable
70
2
0
LAYER
5
50
100
AcDbSymbolTableRecord
100
AcDbLayerTableRecord
2
0
70
0
6
CONTINUOUS
0
ENDTAB
0
TABLE
2
STYLE
5
3
100
AcDbSymbolTable
70
1
0
STYLE
5
11
100
AcDbSymbolTableRecord
100
AcDbTextStyleTableRecord
2
STANDARD
70
0
0
ENDTAB
0
TABLE
2
VIEW
5
6
100
AcDbSymbolTable
70
0
0
ENDTAB
0
TABLE
2
UCS
5
7
100
AcDbSymbolTable
70
0
0
ENDTAB
0
TABLE
2
APPID
5
9
100
AcDbSymbolTable
70
2
0
APPID
5
12
100
AcDbSymbolTableRecord
100
AcDbRegAppTableRecord
2
ACAD
70
0
0
ENDTAB
0
TABLE
2
DIMSTYLE
5
A
100
AcDbSymbolTable
70
1
0
ENDTAB
0
TABLE
2
BLOCK_RECORD
5
1
100
AcDbSymbolTable
70
1
0
BLOCK_RECORD
5
1F
100
AcDbSymbolTableRecord
100
AcDbBlockTableRecord
2
*MODEL_SPACE
0
BLOCK_RECORD
5
1B
100
AcDbSymbolTableRecord
100
AcDbBlockTableRecord
2
*PAPER_SPACE
0
ENDTAB
0
ENDSEC
0
SECTION
2
BLOCKS
0
BLOCK
5
20
100
AcDbEntity
100
AcDbBlockBegin
2
*MODEL_SPACE
0
ENDBLK
5
21
100
AcDbEntity
100
AcDbBlockEnd
0
BLOCK
5
1C
100
AcDbEntity
100
AcDbBlockBegin
2
*PAPER_SPACE
0
ENDBLK
5
1D
100
AcDbEntity
100
AcDbBlockEnd
0
ENDSEC
0
SECTION
2
ENTITIES
0
LINE
5
100
100
AcDbEntity
8
0
100
AcDbLine
10
-294.6561719754672
20
160.71068695424941
30
4.4408920985006262e-15
11
-258.38562503933849
21
160.71068692242662
31
6.1597298373072817e-07
0
SPLINE
5
101
100
AcDbEntity
8
0
100
AcDbSpline
70
0
71
3
72
8
73
4
74
0
42
0.000000001
43
0.0000000001
44
0.0000000001
40
-0.038638899702224297
40
-0.038638899702224297
40
-0.038638899702224297
40
-0.038638899702224297
40
-0.024235052346705636
40
-0.024235052346705636
40
-0.024235052346705636
40
-0.024235052346705636
10
-258.38562503933849
20
160.71068692242662
30
6.1597298373072817e-07
10
-258.26673652367134
20
161.24126411844179
30
6.1597298817162027e-07
10
-258.15128510826366
20
161.76896593614453
30
6.1597297928983608e-07
10
-258.03942984121886
20
162.29379890999229
30
6.1597297928983608e-07
0
SPLINE
5
102
100
AcDbEntity
8
0
100
AcDbSpline
70
0
71
3
72
16
73
12
74
0
42
0.000000001
43
0.0000000001
44
0.0000000001
40
0
40
0
40
0
40
0
40
0.078128894677385041
40
0.078128894677385041
40
0.15625778935477291
40
0.15625778935477291
40
0.2343866840321574
40
0.2343866840321574
40
0.29575863385106532
40
0.29575863385106532
40
0.35713058366997152
40
0.35713058366997152
40
0.35713058366997152
40
0.35713058366997152
10
-259.99549844355533
20
164.71068692383881
30
4.4408920985006262e-15
10
-259.73506879463071
20
164.7106869236103
30
8.8817841970012523e-15
10
-259.47712899513959
20
164.65981922185475
30
8.8817841970012523e-15
10
-258.99526641074874
20
164.46207479609217
30
4.4408920985006262e-15
10
-258.77595049479118
20
164.31708861657449
30
4.4408920985006262e-15
10
-258.40523868590117
20
163.95120999885339
30
8.8817841970012523e-15
10
-258.25738699991518
20
163.73381555965466
30
4.4408920985006262e-15
10
-258.07521853235409
20
163.30598116719324
30
4.4408920985006262e-15
10
-258.02442652818377
20
163.1065728642169
30
8.8817841970012523e-15
10
-257.98509525075485
20
162.69932137961803
30
4.4408920985006262e-15
10
-257.99678779077578
20
162.49387848368002
30
8.8817841970012523e-15
10
-258.03942984121892
20
162.29379890999235
30
8.8817841970012523e-15
0
LINE
5
103
100
AcDbEntity
8
0
100
AcDbLine
10
-259.99549844355533
20
164.71068692383881
30
4.4408920985006262e-15
11
-304.34501008450746
21
164.71068696274983
31
4.4408920985006262e-15
0
ARC
5
104
100
AcDbEntity
8
0
100
AcDbCircle
10
-304.3450100853849
20
163.71068696274989
30
4.4408920985006262e-15
40
0.99999999999994316
210
0
220
-0
230
1
100
AcDbArc
50
89.999999949726686
51
180
0
LINE
5
105
100
AcDbEntity
8
0
100
AcDbLine
10
-305.3450100853849
20
163.71068696466438
30
4.4408920985006262e-15
11
-305.34501008921387
21
161.71068696259013
31
4.4408920985006262e-15
0
ARC
5
106
100
AcDbEntity
8
0
100
AcDbCircle
10
-304.34501008921404
20
161.71068697459498
30
-7.1054273576010019e-13
40
0.99999999999980116
210
7.1498362785874288e-13
220
8.5832588238788951e-21
230
1
100
AcDbArc
50
180
51
269.99999987968403
0
LINE
5
107
100
AcDbEntity
8
0
100
AcDbLine
10
-304.34501009131395
20
160.71068697459495
30
-7.2386541205560206e-13
11
-294.6561719754672
21
160.71068695424941
31
4.4408920985006262e-15
0
LINE
5
108
100
AcDbEntity
8
0
100
AcDbLine
10
-304.77290701183625
20
136.57480074607037
30
0
11
-253.61613219929677
21
136.5748007011872
31
-5.0375773883199966e-23
0
SPLINE
5
109
100
AcDbEntity
8
0
100
AcDbSpline
70
0
71
3
72
8
73
4
74
0
42
0.000000001
43
0.0000000001
44
0.0000000001
40
-0.93279785780633495
40
-0.93279785780633495
40
-0.93279785780633495
40
-0.93279785780633495
40
-0.90591205202551606
40
-0.90591205202551606
40
-0.90591205202551606
40
-0.90591205202551606
10
-253.61613219929683
20
136.57480070118717
30
0
10
-253.32205518520439
20
137.94884954004237
30
0
10
-252.97298621911776
20
139.28189240245291
30
0
10
-252.57448801672385
20
140.57480070027324
30
0
0
LINE
5
110
100
AcDbEntity
8
0
100
AcDbLine
10
-252.57448801672385
20
140.57480070027324
30
0
11
-304.7729070083268
21
140.57480074607059
31
-6.256310688901284e-23
0
ARC
5
111
100
AcDbEntity
8
0
100
AcDbCircle
10
-304.77290700920418
20
139.57480074607059
30
5.254869241218064e-44
40
0.99999999999999645
210
1.6326133146813878e-30
220
6.2563106889013063e-23
230
1
100
AcDbArc
50
89.99999994972994
51
180
0
LINE
5
112
100
AcDbEntity
8
0
100
AcDbLine
10
-305.77290700920412
20
139.5748007469476
30
1.5777218104420646e-30
11
-305.77290701095887
21
137.57480074694774
31
0
0
ARC
5
113
100
AcDbEntity
8
0
100
AcDbCircle
10
-304.77290701095887
20
137.57480074607045
30
-1.0006146846819397e-43
40
1.0000000000000497
210
1.0006146838501069e-43
220
-9.4812835622464179e-44
230
1
100
AcDbArc
50
180
51
269.9999999497299
0
ARC
5
114
100
AcDbEntity
8
0
100
AcDbCircle
10
-306.11797752414213
20
136.42517250333333
30
0
40
4.9999999999999645
210
1.5777218104420236e-30
220
1.3842505570306458e-39
230
1
100
AcDbArc
50
90.000000050269421
51
90.731143029952236
0
LINE
5
115
100
AcDbEntity
8
0
100
AcDbLine
10
-306.11797752852897
20
141.4251725033333
30
-1.5462098617075148e-44
11
-253.60200755026423
21
141.42517254940901
31
0
0
ARC
5
116
100
AcDbEntity
8
0
100
AcDbCircle
10
-253.60200755114167
20
142.42517254940901
30
5.971939939759279e-44
40
0.99999999999999645
210
-1.3131127464782704e-44
220
-5.9719399409114897e-44
230
1
100
AcDbArc
50
-89.999999949726686
51
0
0
LINE
5
117
100
AcDbEntity
8
0
100
AcDbLine
10
-252.6020075511417
20
142.42517255028639
30
2.7372998994074198e-45
11
-252.60200755289623
21
144.42517255028631
31
0
0
ARC
5
118
100
AcDbEntity
8
0
100
AcDbCircle
10
-253.6020075528964
20
144.42517254940901
30
0
40
1.0000000000001563
210
0
220
-0
230
1
100
AcDbArc
50
0
51
90.000000050271694
0
LINE
5
119
100
AcDbEntity
8
0
100
AcDbLine
10
-253.6020075537738
20
145.42517254940901
30
0
11
-306.52264512510078
21
145.42517250290621
31
0
0
SPLINE
5
120
100
AcDbEntity
8
0
100
AcDbSpline
70
0
71
3
72
8
73
4
74
0
42
0.000000001
43
0.0000000001
44
0.0000000001
40
-2.3022108781698054
40
-2.3022108781698054
40
-2.3022108781698054
40
-2.3022108781698054
40
-1.7719419346592107
40
-1.7719419346592107
40
-1.7719419346592107
40
-1.7719419346592107
10
-306.52264512510078
20
145.42517250283427
30
0
10
-306.47360042258009
20
144.14973198842208
30
0
10
-306.36529177579058
20
142.81817434415157
30
0
10
-306.18178005832863
20
141.42476540761041
30
0
0
LWPOLYLINE
5
121
100
AcDbEntity
8
0
100
AcDbPolyline
90
8
70
1
43
0.0
10
-311.13462396683087
20
150.40270140122936
42
0.41421356237296497
10
-312.13462396683087
20
149.40270140122979
10
-312.1346239668307
20
147.40270140122976
42
0.41421356237311585
10
-311.1346239668307
20
146.40270140122971
10
-251.13462396683065
20
146.40270140122976
42
0.41421356237313145
10
-250.13462396683067
20
147.40270140122979
10
-250.13462396683067
20
149.40270140122979
42
0.41421356237293894
10
-251.13462396683076
20
150.40270140122928
0
LWPOLYLINE
5
122
100
AcDbEntity
8
0
100
AcDbPolyline
90
8
70
1
43
0.0
10
-250.23462396683058
20
154.40270140122942
42
0.41421356237307944
10
-251.23462396683053
20
155.40270140122945
10
-311.23462396683061
20
155.40270140122945
42
0.41421356237311063
10
-312.23462396683078
20
154.40270140122942
10
-312.23462396683072
20
152.40270140122939
42
0.41421356237309503
10
-311.23462396683072
20
151.40270140122939
10
-251.2346239668307
20
151.40270140122939
42
0.41421356237309503
10
-250.23462396683072
20
152.40270140122939
0
LINE
5
123
100
AcDbEntity
8
0
100
AcDbLine
10
-304.85552554856815
20
156.14952795168725
30
0
11
-268.31543627414487
21
156.14952798374401
31
0
0
LINE
5
124
100
AcDbEntity
8
0
100
AcDbLine
10
-268.31543627414487
20
156.14952798374401
30
0
11
-258.62643627361979
21
156.14952799733192
31
0
0
ARC
5
125
100
AcDbEntity
8
0
100
AcDbCircle
10
-258.62643627502217
20
157.14952799733189
30
0
40
0.99999999999997868
210
0
220
0
230
1
100
AcDbArc
50
270.00000008035067
51
360
0
LINE
5
126
100
AcDbEntity
8
0
100
AcDbLine
10
-257.62643627502223
20
157.14952799312204
30
0
11
-257.6264362767767
21
159.14952799312195
31
0
0
ARC
5
127
100
AcDbEntity
8
0
100
AcDbCircle
10
-258.62643627677664
20
159.14952799224463
30
0
40
0.99999999999994316
210
-6.9207328556077997e-40
220
7.8886090522101181e-31
230
1
100
AcDbArc
50
0
51
90.000000050270074
0
LINE
5
128
100
AcDbEntity
8
0
100
AcDbLine
10
-258.62643627765402
20
160.1495279922446
30
-7.8886090522099306e-31
11
-303.10915523150993
21
160.14952795321679
31
0
0
SPLINE
5
129
100
AcDbEntity
8
0
100
AcDbSpline
70
0
71
3
72
16
73
12
74
0
42
0.000000001
43
0.0000000001
44
0.0000000001
40
0
40
0
40
0
40
0
40
0.078128894677384111
40
0.078128894677384111
40
0.1562577893547715
40
0.1562577893547715
40
0.23438668403215496
40
0.23438668403215496
40
0.28880631844881477
40
0.28880631844881477
40
0.34322595286547658
40
0.34322595286547658
40
0.34322595286547658
40
0.34322595286547658
10
-305.08935746216139
20
157.8688161458887
30
0
10
-305.12591030087714
20
158.12666783198131
30
0
10
-305.1117495064691
20
158.38919389763029
30
0
10
-304.98359478871561
20
158.89404117797716
30
0
10
-304.87082609432161
20
159.13153577751171
30
0
10
-304.56060085782394
20
159.54993117757718
30
0
10
-304.36611023806688
20
159.72683189004024
30
0
10
-303.9879160477833
20
159.95526462908825
30
0
10
-303.82060298800747
20
160.02749163901234
30
0
10
-303.47111242741676
20
160.12484881448211
30
0
10
-303.29055401289884
20
160.14952795305757
30
0
10
-303.10915523150993
20
160.14952795321679
30
0
0
SPLINE
5
130
100
AcDbEntity
8
0
100
AcDbSpline
70
0
71
3
72
8
73
4
74
0
42
0.000000001
43
0.0000000001
44
0.0000000001
40
-26.47313551484627
40
-26.47313551484627
40
-26.47313551484627
40
-26.47313551484627
40
-26.229386281579977
40
-26.229386281579977
40
-26.229386281579977
40
-26.229386281579977
10
-305.08935746216139
20
157.8688161458887
30
0
10
-305.00748658124036
20
157.29128111908676
30
0
10
-304.92963225504747
20
156.71762305252474
30
0
10
-304.85552554856815
20
156.14952795168972
30
0
0
LINE
5
131
100
AcDbEntity
8
0
100
AcDbLine
10
-294.6561719754672
20
160.71068695424941
30
0
11
-258.38562503933849
21
160.71068692242662
31
-4.1695022264403117e-23
0
SPLINE
5
132
100
AcDbEntity
8
0
100
AcDbSpline
70
0
71
3
72
8
73
4
74
0
42
0.000000001
43
0.0000000001
44
0.0000000001
40
-0.038638899702224297
40
-0.038638899702224297
40
-0.038638899702224297
40
-0.038638899702224297
40
-0.024235052346705636
40
-0.024235052346705636
40
-0.024235052346705636
40
-0.024235052346705636
10
-258.38562503933849
20
160.71068692242662
30
0
10
-258.26673652367134
20
161.24126411844179
30
0
10
-258.15128510826366
20
161.76896593614453
30
0
10
-258.03942984121886
20
162.29379890999229
30
0
0
SPLINE
5
133
100
AcDbEntity
8
0
100
AcDbSpline
70
0
71
3
72
16
73
12
74
0
42
0.000000001
43
0.0000000001
44
0.0000000001
40
0
40
0
40
0
40
0
40
0.078128894677385041
40
0.078128894677385041
40
0.15625778935477291
40
0.15625778935477291
40
0.2343866840321574
40
0.2343866840321574
40
0.29575863385106532
40
0.29575863385106532
40
0.35713058366997152
40
0.35713058366997152
40
0.35713058366997152
40
0.35713058366997152
10
-259.99549844355533
20
164.71068692383881
30
0
10
-259.73506879463071
20
164.7106869236103
30
0
10
-259.47712899513959
20
164.65981922185475
30
0
10
-258.99526641074874
20
164.46207479609217
30
0
10
-258.77595049479118
20
164.31708861657449
30
0
10
-258.40523868590117
20
163.95120999885339
30
0
10
-258.25738699991518
20
163.73381555965466
30
0
10
-258.07521853235409
20
163.30598116719324
30
0
10
-258.02442652818377
20
163.1065728642169
30
0
10
-257.98509525075485
20
162.69932137961803
30
0
10
-257.99678779077578
20
162.49387848368002
30
0
10
-258.03942984121892
20
162.29379890999235
30
0
0
LINE
5
134
100
AcDbEntity
8
0
100
AcDbLine
10
-259.99549844355533
20
164.71068692383881
30
0
11
-304.34501008450746
21
164.71068696274983
31
0
0
ARC
5
135
100
AcDbEntity
8
0
100
AcDbCircle
10
-304.3450100853849
20
163.71068696274989
30
0
40
0.99999999999994316
210
0
220
-0
230
1
100
AcDbArc
50
89.999999949726686
51
180
0
LINE
5
136
100
AcDbEntity
8
0
100
AcDbLine
10
-305.3450100853849
20
163.7106869646644
30
0
11
-305.34501008921387
21
161.71068696259013
31
0
0
ARC
5
137
100
AcDbEntity
8
0
100
AcDbCircle
10
-304.34501008921404
20
161.71068697459492
30
-8.7581154020301067e-45
40
0.99999999999983669
210
-9.470106126493192e-39
220
7.8886088296769943e-31
230
1
100
AcDbArc
50
180
51
269.99999987968403
0
LINE
5
138
100
AcDbEntity
8
0
100
AcDbLine
10
-304.34501009131395
20
160.71068697459492
30
7.8886090522105017e-31
11
-294.6561719754672
21
160.71068695424941
31
0
0
LINE
5
139
100
AcDbEntity
8
0
100
AcDbLine
10
-245.33725035503036
20
136.57480070118697
30
0
11
-194.18047554249111
21
136.57480074607037
31
0
0
ARC
5
140
100
AcDbEntity
8
0
100
AcDbCircle
10
-194.18047554336849
20
137.57480074607045
30
6.3496336664718274e-44
40
1.0000000000000853
210
-2.698123210166828e-44
220
-6.3496336688385605e-44
230
1
100
AcDbArc
50
-89.99999994972994
51
0
0
LINE
5
141
100
AcDbEntity
8
0
100
AcDbLine
10
-193.1804755433684
20
137.57480074694774
30
-2.1722915922151045e-44
11
-193.18047554512333
21
139.57480074694763
31
1.9721522630525295e-30
0
ARC
5
142
100
AcDbEntity
8
0
100
AcDbCircle
10
-194.18047554512316
20
139.57480074607059
30
-3.076288034963075e-44
40
0.99999999999983658
210
-1.9721522630528826e-30
220
-1.7291290885879374e-39
230
1
100
AcDbArc
50
0
51
90.000000050270074
0
LINE
5
143
100
AcDbEntity
8
0
100
AcDbLine
10
-194.18047554600054
20
140.57480074607059
30
-2.7004462134954412e-44
11
-246.37889453759826
21
140.57480070026483
31
0
0
SPLINE
5
144
100
AcDbEntity
8
0
100
AcDbSpline
70
0
71
3
72
10
73
6
74
0
42
0.000000001
43
0.0000000001
44
0.0000000001
40
15.487450485635952
40
15.487450485635952
40
15.487450485635952
40
15.487450485635952
40
15.588065154754727
40
15.588065154754727
40
15.729916118552053
40
15.729916118552053
40
15.729916118552053
40
15.729916118552053
10
-246.37889453759826
20
140.57480070025642
30
0
10
-246.21852815749608
20
140.05449967435413
30
0
10
-246.06357579380892
20
139.51928824505586
30
0
10
-245.70651467831686
20
138.1938001410924
30
0
10
-245.51307914256199
20
137.39634515984048
30
0
10
-245.33725035503033
20
136.57480070118669
30
0
0
ARC
5
145
100
AcDbEntity
8
0
100
AcDbCircle
10
-192.8354050301852
20
136.42517250333333
30
0
40
4.9999999999999662
210
1.5775933545681497e-30
220
-2.0132530066260579e-32
230
1
100
AcDbArc
50
89.268856966550572
51
89.99999994972994
0
SPLINE
5
146
100
AcDbEntity
8
0
100
AcDbSpline
70
0
71
3
72
10
73
6
74
0
42
0.000000001
43
0.0000000001
44
0.0000000001
40
18.881895628674368
40
18.881895628674368
40
18.881895628674368
40
18.881895628674368
40
19.126926025908286
40
19.126926025908286
40
19.25220159811969
40
19.25220159811969
40
19.25220159811969
40
19.25220159811969
10
-192.43073742922107
20
145.42517250297755
30
0
10
-192.46338470723916
20
144.57615805425877
30
0
10
-192.52233592752771
20
143.70150015823094
30
0
10
-192.65794356001291
20
142.34244785325544
30
0
10
-192.71122598485505
20
141.88320572623593
30
0
10
-192.77160249562868
20
141.4247654104197
30
0
0
LINE
5
147
100
AcDbEntity
8
0
100
AcDbLine
10
-192.43073742922107
20
145.42517250297755
30
0
11
-245.35137500055353
21
145.42517254940901
31
0
0
ARC
5
148
100
AcDbEntity
8
0
100
AcDbCircle
10
-245.35137500143091
20
144.42517254940898
30
0
40
1.000000000000032
210
0
220
-0
230
1
100
AcDbArc
50
89.99999994972994
51
180
0
LINE
5
149
100
AcDbEntity
8
0
100
AcDbLine
10
-246.35137500143091
20
144.42517255028628
30
0
11
-246.35137500318567
21
142.42517255028639
31
0
0
ARC
5
150
100
AcDbEntity
8
0
100
AcDbCircle
10
-245.35137500318572
20
142.42517254940898
30
-2.6835412974032874e-44
40
0.99999999999994316
210
-6.9211651507096206e-40
220
-7.8886090522094332e-31
230
1
100
AcDbArc
50
180
51
269.9999999497299
0
LINE
5
151
100
AcDbEntity
8
0
100
AcDbLine
10
-245.3513750040631
20
141.42517254940904
30
-7.8886090522095313e-31
11
-192.83540502579831
21
141.4251725033333
31
1.0066264341059841e-31
0
LWPOLYLINE
5
152
100
AcDbEntity
8
0
100
AcDbPolyline
90
8
70
1
43
0.0
10
-186.81875858749646
20
149.40270140122979
42
0.41421356237295454
10
-187.81875858749643
20
150.40270140122936
10
-247.81875858749657
20
150.40270140122931
42
0.41421356237293894
10
-248.81875858749657
20
149.40270140122979
10
-248.81875858749666
20
147.40270140122976
42
0.41421356237312623
10
-247.81875858749672
20
146.40270140122979
10
-187.81875858749663
20
146.40270140122968
42
0.41421356237311585
10
-186.81875858749666
20
147.40270140122976
0
LWPOLYLINE
5
153
100
AcDbEntity
8
0
100
AcDbPolyline
90
8
70
1
43
0.0
10
-247.71875858749678
20
155.40270140122942
42
0.41421356237310025
10
-248.71875858749675
20
154.40270140122942
10
-248.71875858749658
20
152.40270140122939
42
0.41421356237308982
10
-247.71875858749667
20
151.40270140122939
10
-187.71875858749664
20
151.40270140122945
42
0.41421356237308982
10
-186.71875858749667
20
152.40270140122942
10
-186.71875858749661
20
154.40270140122942
42
0.4142135623730846
10
-187.71875858749667
20
155.40270140122945
0
LINE
5
154
100
AcDbEntity
8
0
100
AcDbLine
10
-230.63794628018243
20
156.14952798374401
30
0
11
-194.09785700575975
21
156.14952795168489
31
0
0
SPLINE
5
155
100
AcDbEntity
8
0
100
AcDbSpline
70
0
71
3
72
8
73
4
74
0
42
0.000000001
43
0.0000000001
44
0.0000000001
40
0.23160781893112178
40
0.23160781893112178
40
0.23160781893112178
40
0.23160781893112178
40
0.40795337383688951
40
0.40795337383688951
40
0.40795337383688951
40
0.40795337383688951
10
-193.86402509216592
20
157.86881614588862
30
0
10
-193.94571404592813
20
157.29256447289143
30
0
10
-194.0235763079346
20
156.71895685395049
30
0
10
-194.09785700575966
20
156.14952795168489
30
0
0
SPLINE
5
156
100
AcDbEntity
8
0
100
AcDbSpline
70
0
71
3
72
16
73
12
74
0
42
0.000000001
43
0.0000000001
44
0.0000000001
40
0
40
0
40
0
40
0
40
0.078128894677384944
40
0.078128894677384944
40
0.15625778935477269
40
0.15625778935477269
40
0.23438668403215712
40
0.23438668403215712
40
0.28880631844881754
40
0.28880631844881754
40
0.34322595286547875
40
0.34322595286547875
40
0.34322595286547875
40
0.34322595286547875
10
-195.8442273228174
20
160.14952795321679
30
0
10
-195.5837976738928
20
160.14952795298828
30
0
10
-195.32585787440166
20
160.09866025123273
30
0
10
-194.84399529001084
20
159.90091582547012
30
0
10
-194.62467937405324
20
159.75592964595245
30
0
10
-194.25396756516324
20
159.39005102823137
30
0
10
-194.10611587917728
20
159.17265658903258
30
0
10
-193.93302615696285
20
158.76614421542382
30
0
10
-193.88499748967098
20
158.59034988089553
30
0
10
-193.83765710533734
20
158.23065423236943
30
0
10
-193.83856470228054
20
158.04841928181966
30
0
10
-193.86402509216595
20
157.8688161458887
30
0
0
LINE
5
157
100
AcDbEntity
8
0
100
AcDbLine
10
-195.8442273228174
20
160.14952795321679
30
0
11
-240.32694627667325
21
160.1495279922446
31
0
0
ARC
5
158
100
AcDbEntity
8
0
100
AcDbCircle
10
-240.32694627755066
20
159.14952799224463
30
0
40
0.99999999999996092
210
1.5777218104420236e-30
220
-1.3843147269372544e-39
230
1
100
AcDbArc
50
89.999999949728306
51
180
0
LINE
5
159
100
AcDbEntity
8
0
100
AcDbLine
10
-241.32694627755063
20
159.14952799312198
30
1.5777218104419861e-30
11
-241.32694627930533
21
157.14952799312206
31
0
0
ARC
5
160
100
AcDbEntity
8
0
100
AcDbCircle
10
-240.32694627930513
20
157.14952799733189
30
2.4084817355582793e-45
40
1.0000000000001918
210
-3.320967665053775e-39
220
7.8886090522101321e-31
230
1
100
AcDbArc
50
180
51
269.99999991964768
0
LINE
5
161
100
AcDbEntity
8
0
100
AcDbLine
10
-240.32694628070755
20
156.14952799733192
30
7.8886090522099884e-31
11
-230.63794628018243
21
156.14952798374401
31
0
0
LINE
5
162
100
AcDbEntity
8
0
100
AcDbLine
10
-240.56775751499632
20
160.71068692244359
30
0
11
-204.29721057886013
21
160.71068695424941
31
0
0
LINE
5
163
100
AcDbEntity
8
0
100
AcDbLine
10
-204.29721057886013
20
160.71068695424941
30
0
11
-194.60837246301338
21
160.71068697459495
31
0
0
ARC
5
164
100
AcDbEntity
8
0
100
AcDbCircle
10
-194.60837246511332
20
161.71068697459501
30
2.3427958700430535e-43
40
1.0000000000000497
210
3.1554436097573755e-30
220
6.6260016673922477e-39
230
1
100
AcDbArc
50
270.00000012031757
51
360
0
LINE
5
165
100
AcDbEntity
8
0
100
AcDbLine
10
-193.60837246511326
20
161.71068696259013
30
-3.155443620884029e-30
11
-193.60837246894249
21
163.71068696466438
31
-1.9721522630525295e-30
0
ARC
5
166
100
AcDbEntity
8
0
100
AcDbCircle
10
-194.60837246894243
20
163.71068696274989
30
0
40
0.99999999999994316
210
1.9721522630526416e-30
220
3.7756585822772165e-39
230
1
100
AcDbArc
50
0
51
90.000000050270074
0
LINE
5
167
100
AcDbEntity
8
0
100
AcDbLine
10
-194.60837246981981
20
164.71068696274986
30
0
11
-238.95788411077203
21
164.71068692383881
31
0
0
SPLINE
5
168
100
AcDbEntity
8
0
100
AcDbSpline
70
0
71
3
72
16
73
12
74
0
42
0.000000001
43
0.0000000001
44
0.0000000001
40
0
40
0
40
0
40
0
40
0.078128894677378449
40
0.078128894677378449
40
0.15625778935476248
40
0.15625778935476248
40
0.23438668403214694
40
0.23438668403214694
40
0.29575863385105655
40
0.29575863385105655
40
0.35713058366996581
40
0.35713058366996581
40
0.35713058366996581
40
0.35713058366996581
10
-240.91395271310836
20
162.2937989099924
30
0
10
-240.96823771265184
20
162.54850803991033
30
0
10
-240.97225336105026
20
162.81138507924879
30
0
10
-240.8792938979426
20
163.32388185618964
30
0
10
-240.78320752957075
20
163.56860184527207
30
0
10
-240.50263834629828
20
164.00743591591137
30
0
10
-240.32083792571186
20
164.19735450456983
30
0
10
-239.94037313983779
20
164.46470102999371
30
0
10
-239.75593226836324
20
164.55594281818989
30
0
10
-239.36582471603947
20
164.67929928827613
30
0
10
-239.162457276835
20
164.71068692365932
30
0
10
-238.957884110772
20
164.71068692383881
30
0
0
SPLINE
5
169
100
AcDbEntity
8
0
100
AcDbSpline
70
0
71
3
72
8
73
4
74
0
42
0.000000001
43
0.0000000001
44
0.0000000001
40
0.25211610303035292
40
0.25211610303035292
40
0.25211610303035292
40
0.25211610303035292
40
0.42374946154059451
40
0.42374946154059451
40
0.42374946154059451
40
0.42374946154059451
10
-240.91395271310844
20
162.29379890999238
30
0
10
-240.79976281229841
20
161.7580116662721
30
0
10
-240.68423891410933
20
161.23052160777524
30
0
10
-240.56775751499629
20
160.71068692246052
30
0
0
ENDSEC
0
SECTION
2
OBJECTS
0
DICTIONARY
5
C
100
AcDbDictionary
3
ACAD_GROUP
350
D
3
ACAD_MLINESTYLE
350
17
0
DICTIONARY
5
D
100
AcDbDictionary
0
DICTIONARY
5
1A
330
C
100
AcDbDictionary
0
DICTIONARY
5
17
100
AcDbDictionary
0
ENDSEC
0
EOF
